<svg xmlns="http://www.w3.org/2000/svg" version="1.1" xmlns:xlink="http://www.w3.org/1999/xlink" xmlns:svgjs="http://svgjs.dev/svgjs" width="350" height="350" preserveAspectRatio="none" viewBox="0 0 350 350"><g mask="url(&quot;#SvgjsMask1017&quot;)" fill="none"><rect width="350" height="350" x="0" y="0" fill="rgba(6, 21, 50, 1)"></rect><path d="M-33.26 -13.42 a19.84 19.84 0 1 0 39.68 0 a19.84 19.84 0 1 0 -39.68 0z" fill="rgba(28, 83, 142, 0.2)" class="triangle-float2"></path><path d="M63.013,129.515C86.022,128.512,104.465,113.51,116.892,94.12C130.677,72.611,141.855,46.92,130.669,23.952C118.337,-1.368,91.166,-17.254,63.013,-16.505C35.971,-15.785,14.204,3.608,1.319,27.394C-10.902,49.953,-12.936,77.241,0.331,99.202C13.194,120.493,38.162,130.599,63.013,129.515" fill="rgba(28, 83, 142, 0.2)" class="triangle-float2"></path><path d="M-63.51 16.85 a80.36 80.36 0 1 0 160.72 0 a80.36 80.36 0 1 0 -160.72 0z" fill="rgba(28, 83, 142, 0.2)" class="triangle-float2"></path><path d="M215.21 18.13 a82.92 82.92 0 1 0 165.84 0 a82.92 82.92 0 1 0 -165.84 0z" fill="rgba(28, 83, 142, 0.2)" class="triangle-float2"></path><path d="M225.64 7.7 a62.06 62.06 0 1 0 124.12 0 a62.06 62.06 0 1 0 -124.12 0z" fill="rgba(28, 83, 142, 0.2)" class="triangle-float1"></path><path d="M369.005,192.134C404.074,192.703,433.153,166.477,448.961,135.168C463.265,106.838,457.746,74.408,442.501,46.573C426.498,17.353,402.252,-8.684,369.005,-10.818C332.247,-13.177,294.295,3.371,277.126,35.959C260.798,66.95,275.658,102.452,293.42,132.644C310.845,162.263,334.645,191.577,369.005,192.134" fill="rgba(28, 83, 142, 0.2)" class="triangle-float1"></path><path d="M-50.83 284.15 a54.98 54.98 0 1 0 109.96 0 a54.98 54.98 0 1 0 -109.96 0z" fill="rgba(28, 83, 142, 0.2)" class="triangle-float2"></path><path d="M12.039,322.788C23.028,323.248,33.206,316.96,38.733,307.451C44.288,297.893,44.364,286.142,38.938,276.51C33.41,266.697,23.3,260.261,12.039,260.067C0.436,259.867,-11.245,265.214,-16.514,275.554C-21.431,285.202,-16.649,296.102,-11.047,305.369C-5.701,314.212,1.715,322.356,12.039,322.788" fill="rgba(28, 83, 142, 0.2)" class="triangle-float2"></path><path d="M-38.4 271.73 a30.13 30.13 0 1 0 60.26 0 a30.13 30.13 0 1 0 -60.26 0z" fill="rgba(28, 83, 142, 0.2)" class="triangle-float1"></path><path d="M349.214,420.048C374.465,420.043,397.642,406.331,410.286,384.474C422.949,362.584,423.22,335.686,410.742,313.69C398.097,291.401,374.836,277.28,349.214,276.821C322.763,276.347,296.802,288.407,283.744,311.415C270.833,334.162,274.598,362.096,288.099,384.498C301.137,406.132,323.955,420.053,349.214,420.048" fill="rgba(28, 83, 142, 0.2)" class="triangle-float3"></path><path d="M213.89 299.44 a85.55 85.55 0 1 0 171.1 0 a85.55 85.55 0 1 0 -171.1 0z" fill="rgba(28, 83, 142, 0.2)" class="triangle-float1"></path><path d="M322.869,375.576C341.911,376.025,360.393,366.521,369.546,349.818C378.394,333.672,373.39,314.925,365.119,298.477C355.616,279.579,344.022,257.129,322.869,256.999C301.613,256.868,288.819,278.746,279.711,297.952C272.095,314.012,271.22,332.169,279.857,347.703C288.755,363.708,304.562,375.144,322.869,375.576" fill="rgba(28, 83, 142, 0.2)" class="triangle-float1"></path></g><defs><mask id="SvgjsMask1017"><rect width="350" height="350" fill="#ffffff"></rect></mask><style>
                @keyframes float1 {
                    0%{transform: translate(0, 0)}
                    50%{transform: translate(-10px, 0)}
                    100%{transform: translate(0, 0)}
                }

                .triangle-float1 {
                    animation: float1 5s infinite;
                }

                @keyframes float2 {
                    0%{transform: translate(0, 0)}
                    50%{transform: translate(-5px, -5px)}
                    100%{transform: translate(0, 0)}
                }

                .triangle-float2 {
                    animation: float2 4s infinite;
                }

                @keyframes float3 {
                    0%{transform: translate(0, 0)}
                    50%{transform: translate(0, -10px)}
                    100%{transform: translate(0, 0)}
                }

                .triangle-float3 {
                    animation: float3 6s infinite;
                }
            </style></defs></svg>