<svg xmlns="http://www.w3.org/2000/svg" version="1.1" xmlns:xlink="http://www.w3.org/1999/xlink" xmlns:svgjs="http://svgjs.dev/svgjs" width="1440" height="560" preserveAspectRatio="none" viewBox="0 0 1440 560"><g mask="url(&quot;#SvgjsMask1008&quot;)" fill="none"><rect width="1440" height="560" x="0" y="0" fill="rgba(6, 21, 50, 1)"></rect><path d="M60.694,133.962C87.616,134.109,113.972,122.54,127.625,99.337C141.46,75.825,139.51,46.69,125.988,22.997C112.341,-0.917,88.161,-16.03,60.694,-17.943C29.098,-20.144,-6.965,-14.94,-22.514,12.654C-37.9,39.959,-22.713,72.768,-4.984,98.614C10.089,120.588,34.047,133.817,60.694,133.962" fill="rgba(28, 83, 142, 0.2)" class="triangle-float1"></path><path d="M26.152,83.54C45.979,83.842,62.235,69.878,72.397,52.851C82.867,35.308,89.204,13.327,78.406,-4.017C68.006,-20.722,45.827,-21.745,26.152,-21.429C7.23,-21.125,-13.519,-18.6,-23.275,-2.385C-33.249,14.192,-27.362,34.709,-17.716,51.479C-8.037,68.306,6.742,83.244,26.152,83.54" fill="rgba(28, 83, 142, 0.2)" class="triangle-float1"></path><path d="M70.235,166.87C103.244,166.53,130.27,143,145.999,113.977C160.937,86.415,160.656,54.179,146.458,26.228C130.621,-4.949,105.191,-34.222,70.235,-35.178C34.034,-36.168,3.161,-10.268,-13.569,21.851C-29.061,51.593,-25.062,86.533,-8.283,115.568C8.483,144.581,36.728,167.215,70.235,166.87" fill="rgba(28, 83, 142, 0.2)" class="triangle-float1"></path><path d="M1270.83 -17.49 a39.68 39.68 0 1 0 79.36 0 a39.68 39.68 0 1 0 -79.36 0z" fill="rgba(28, 83, 142, 0.2)" class="triangle-float3"></path><path d="M1396.033,152.918C1425.262,152.127,1449.918,132.898,1463.945,107.242C1477.376,82.677,1477.639,53.244,1463.851,28.877C1449.848,4.129,1424.462,-12.187,1396.033,-12.778C1366.551,-13.391,1338.356,0.689,1323.145,25.951C1307.449,52.017,1306.291,84.711,1321.439,111.099C1336.65,137.595,1365.492,153.745,1396.033,152.918" fill="rgba(28, 83, 142, 0.2)" class="triangle-float2"></path><path d="M1356.568,93.183C1378.546,92.831,1396.74,77.107,1406.698,57.511C1415.744,39.71,1412.511,19.317,1403.038,1.739C1392.944,-16.99,1377.831,-36.236,1356.568,-35.504C1335.989,-34.796,1325.386,-13.21,1315.328,4.758C1305.615,22.109,1295.172,41.142,1303.577,59.163C1313.087,79.552,1334.073,93.543,1356.568,93.183" fill="rgba(28, 83, 142, 0.2)" class="triangle-float2"></path><path d="M-88.6 461.94 a102.54 102.54 0 1 0 205.08 0 a102.54 102.54 0 1 0 -205.08 0z" fill="rgba(28, 83, 142, 0.2)" class="triangle-float2"></path><path d="M132.909,714.06C185.842,715.565,243.509,705.888,271.215,660.76C299.89,614.053,289.951,553.395,259.541,507.798C232.219,466.832,182.106,455.472,132.909,453.384C78.351,451.068,15.187,449.929,-13.821,496.194C-43.907,544.177,-24.055,606.291,7.582,653.266C35.381,694.543,83.164,712.646,132.909,714.06" fill="rgba(28, 83, 142, 0.2)" class="triangle-float3"></path><path d="M144.208,763.563C206.537,765.808,266.343,734.737,298.032,681.019C330.219,626.456,329.429,558.42,297.504,503.703C265.828,449.413,206.987,414.276,144.208,417.374C85.863,420.253,42.653,466.156,15.051,517.639C-10.793,565.843,-16.983,622.167,8.448,670.59C35.782,722.635,85.46,761.447,144.208,763.563" fill="rgba(28, 83, 142, 0.2)" class="triangle-float1"></path><path d="M1439.807,668.215C1479.077,667.122,1515.863,649.067,1536.322,615.53C1557.681,580.517,1560.888,537.216,1541.897,500.864C1521.412,461.652,1484.018,432.392,1439.807,430.783C1392.875,429.074,1346.868,451.926,1323.975,492.931C1301.579,533.047,1308.183,582.844,1333.513,621.175C1356.408,655.822,1398.295,669.371,1439.807,668.215" fill="rgba(28, 83, 142, 0.2)" class="triangle-float1"></path><path d="M1361.917,540.182C1383.213,540.294,1403.413,530.453,1414.63,512.351C1426.483,493.223,1429.77,468.722,1418.132,449.462C1406.813,430.73,1383.799,424.727,1361.917,425.119C1340.836,425.497,1319.896,433.313,1309.086,451.415C1298.023,469.941,1299.119,493.26,1310.155,511.802C1320.941,529.925,1340.827,540.071,1361.917,540.182" fill="rgba(28, 83, 142, 0.2)" class="triangle-float3"></path><path d="M1358.274,532.776C1378.633,532.44,1399.412,525.537,1409.54,507.872C1419.625,490.283,1414.907,468.986,1404.985,451.305C1394.802,433.159,1379.072,417.158,1358.274,416.518C1336.526,415.849,1317.265,429.474,1306.305,448.27C1295.257,467.216,1292.501,490.932,1303.99,509.614C1315.035,527.575,1337.192,533.124,1358.274,532.776" fill="rgba(28, 83, 142, 0.2)" class="triangle-float2"></path></g><defs><mask id="SvgjsMask1008"><rect width="1440" height="560" fill="#ffffff"></rect></mask><style>
                @keyframes float1 {
                    0%{transform: translate(0, 0)}
                    50%{transform: translate(-10px, 0)}
                    100%{transform: translate(0, 0)}
                }

                .triangle-float1 {
                    animation: float1 5s infinite;
                }

                @keyframes float2 {
                    0%{transform: translate(0, 0)}
                    50%{transform: translate(-5px, -5px)}
                    100%{transform: translate(0, 0)}
                }

                .triangle-float2 {
                    animation: float2 4s infinite;
                }

                @keyframes float3 {
                    0%{transform: translate(0, 0)}
                    50%{transform: translate(0, -10px)}
                    100%{transform: translate(0, 0)}
                }

                .triangle-float3 {
                    animation: float3 6s infinite;
                }
            </style></defs></svg>