<svg xmlns="http://www.w3.org/2000/svg" version="1.1" xmlns:xlink="http://www.w3.org/1999/xlink" xmlns:svgjs="http://svgjs.dev/svgjs" width="1440" height="560" preserveAspectRatio="none" viewBox="0 0 1440 560"><g mask="url(&quot;#SvgjsMask1007&quot;)" fill="none"><rect width="1440" height="560" x="0" y="0" fill="rgba(238, 241, 255, 1)"></rect><path d="M86.388,198.692C122.958,196.688,146.884,163.515,163.08,130.666C177.137,102.156,178.216,70.025,163.796,41.697C147.754,10.182,121.61,-16.832,86.388,-19.991C45.415,-23.666,1.148,-10.325,-19.492,25.259C-40.186,60.935,-27.876,104.75,-6.386,139.952C14.055,173.435,47.217,200.838,86.388,198.692" fill="rgba(28, 83, 142, 0.4)" class="triangle-float1"></path><path d="M-112.06 37.39 a149.45 149.45 0 1 0 298.9 0 a149.45 149.45 0 1 0 -298.9 0z" fill="rgba(28, 83, 142, 0.4)" class="triangle-float2"></path><path d="M-99.58 24.92 a124.5 124.5 0 1 0 249 0 a124.5 124.5 0 1 0 -249 0z" fill="rgba(28, 83, 142, 0.4)" class="triangle-float1"></path><path d="M1285.54 -32.21 a10.25 10.25 0 1 0 20.5 0 a10.25 10.25 0 1 0 -20.5 0z" fill="rgba(28, 83, 142, 0.4)" class="triangle-float2"></path><path d="M1410.439,195.579C1447.386,195.886,1472.127,160.592,1488.086,127.268C1501.683,98.877,1500.543,66.76,1485.332,39.2C1469.531,10.572,1443.048,-10.987,1410.439,-13.413C1373.065,-16.193,1331.229,-6.551,1313.392,26.409C1296.065,58.427,1316.88,94.417,1334.996,125.996C1353.242,157.801,1373.773,195.274,1410.439,195.579" fill="rgba(28, 83, 142, 0.4)" class="triangle-float3"></path><path d="M1456.129,267.588C1510.201,267.586,1567.309,254.737,1595.508,208.6C1624.704,160.831,1617.491,99.573,1587.845,52.082C1559.908,7.329,1508.77,-18.18,1456.129,-14.679C1408.673,-11.522,1376.814,27.45,1351.627,67.794C1324.18,111.76,1292.709,162.683,1316.731,208.61C1341.794,256.527,1402.053,267.59,1456.129,267.588" fill="rgba(28, 83, 142, 0.4)" class="triangle-float1"></path><path d="M59.542,593.045C89.428,593.269,115.46,574.336,130.274,548.379C144.952,522.662,146.386,491.58,132.322,465.522C117.509,438.076,90.729,417.606,59.542,417.319C27.909,417.027,-0.784,436.208,-15.6,464.158C-29.556,490.486,-24.386,521.59,-9.378,547.333C5.503,572.858,29.997,592.824,59.542,593.045" fill="rgba(28, 83, 142, 0.4)" class="triangle-float3"></path><path d="M109.538,683.615C156.087,685.883,202.149,664.816,225.946,624.746C250.212,583.886,248.775,531.983,223.479,491.753C199.65,453.855,154.304,439.907,109.538,439.613C64.137,439.315,15.24,450.672,-7.025,490.24C-28.992,529.279,-11.877,575.921,11.248,614.285C33.432,651.088,66.617,681.524,109.538,683.615" fill="rgba(28, 83, 142, 0.4)" class="triangle-float3"></path><path d="M9.86,495.863C24.004,495.527,37.784,490.304,45.39,478.374C53.599,465.498,55.789,448.976,48.203,435.724C40.575,422.398,25.212,415.986,9.86,416.307C-4.916,416.616,-18.154,424.625,-25.799,437.273C-33.738,450.408,-36.694,467.021,-28.715,480.132C-20.977,492.846,-5.02,496.216,9.86,495.863" fill="rgba(28, 83, 142, 0.4)" class="triangle-float2"></path><path d="M1431.818,672.42C1474.941,674.237,1515.613,650.029,1536.621,612.326C1557.113,575.548,1552.847,530.542,1530.885,494.622C1509.884,460.274,1472.025,442.958,1431.818,440.918C1386.994,438.644,1335.442,444.357,1313.665,483.602C1292.236,522.219,1317.843,566.658,1341.27,604.096C1362.767,638.45,1391.328,670.714,1431.818,672.42" fill="rgba(28, 83, 142, 0.4)" class="triangle-float3"></path><path d="M1449.205,700.968C1501.583,703.961,1560.525,694.051,1586.303,648.358C1611.81,603.145,1585.643,550.374,1559.444,505.558C1533.587,461.326,1500.417,412.29,1449.205,413.833C1399.374,415.334,1372.562,467.466,1349.901,511.872C1329.939,550.991,1316.384,595.217,1336.803,634.1C1358.528,675.469,1402.555,698.302,1449.205,700.968" fill="rgba(28, 83, 142, 0.4)" class="triangle-float2"></path><path d="M1248.52 452.81 a84.29 84.29 0 1 0 168.58 0 a84.29 84.29 0 1 0 -168.58 0z" fill="rgba(28, 83, 142, 0.4)" class="triangle-float1"></path></g><defs><mask id="SvgjsMask1007"><rect width="1440" height="560" fill="#ffffff"></rect></mask><style>
                @keyframes float1 {
                    0%{transform: translate(0, 0)}
                    50%{transform: translate(-10px, 0)}
                    100%{transform: translate(0, 0)}
                }

                .triangle-float1 {
                    animation: float1 5s infinite;
                }

                @keyframes float2 {
                    0%{transform: translate(0, 0)}
                    50%{transform: translate(-5px, -5px)}
                    100%{transform: translate(0, 0)}
                }

                .triangle-float2 {
                    animation: float2 4s infinite;
                }

                @keyframes float3 {
                    0%{transform: translate(0, 0)}
                    50%{transform: translate(0, -10px)}
                    100%{transform: translate(0, 0)}
                }

                .triangle-float3 {
                    animation: float3 6s infinite;
                }
            </style></defs></svg>